<?xml version="1.0" encoding="utf-8"?>
<!-- Generator: Adobe Illustrator 16.0.0, SVG Export Plug-In . SVG Version: 6.00 Build 0)  -->
<!DOCTYPE svg PUBLIC "-//W3C//DTD SVG 1.1//EN" "http://www.w3.org/Graphics/SVG/1.1/DTD/svg11.dtd">
<svg version="1.1" id="Layer_1" xmlns="http://www.w3.org/2000/svg" xmlns:xlink="http://www.w3.org/1999/xlink" x="0px" y="0px"
	 width="300px" height="200px" viewBox="0 0 300 200" enable-background="new 0 0 300 200" xml:space="preserve">
<g>
	<path d="M141.629,178.392c-0.586,0-1.208-0.017-1.866-0.055c-0.66-0.036-1.282-0.091-1.867-0.165
		c-5.638-0.805-10.322-3.11-14.055-6.917c-1.685-1.829-3.075-3.915-4.173-6.259l-0.329-0.549c-1.317-3.147-2.086-6.66-2.306-10.541
		c-0.074-2.636,0.201-5.215,0.824-7.741c0.621-2.524,1.592-4.922,2.91-7.191c2.488-4.244,5.782-7.648,9.882-10.211
		c1.683-1.099,3.458-1.978,5.325-2.636c1.866-0.659,3.75-1.099,5.654-1.317c4.099-0.439,7.868,0.258,11.31,2.086
		c3.44,1.831,6.149,4.685,8.126,8.565c2.048,4.025,3.11,8.821,3.184,14.382c0.072,0.953-0.163,1.813-0.713,2.581
		c-0.55,0.77-1.264,1.336-2.142,1.701l-31.074,11.091c1.463,1.465,3.02,2.489,4.667,3.074c1.647,0.587,3.02,0.952,4.117,1.098
		c3.075,0.439,5.966,0.147,8.675-0.878c2.196-0.951,3.513-2.086,3.953-3.404c0.365-1.17,1.079-2.012,2.141-2.525
		c1.062-0.511,2.178-0.584,3.35-0.219c1.17,0.366,2.031,1.08,2.579,2.141c0.55,1.063,0.641,2.179,0.276,3.349
		c-1.319,3.953-4.322,6.881-9.004,8.784c-1.466,0.586-2.984,1.026-4.558,1.316C144.94,178.246,143.313,178.392,141.629,178.392z
		 M143.935,133.483c-2.929,0-5.819,0.879-8.674,2.636c-1.172,0.806-2.344,1.757-3.514,2.854c-1.172,1.097-2.215,2.398-3.129,3.897
		c-0.916,1.501-1.63,3.148-2.141,4.94c-0.513,1.796-0.733,3.717-0.659,5.765c0.072,0.66,0.127,1.302,0.165,1.922
		c0.036,0.623,0.127,1.228,0.274,1.812l28.988-10.32c-0.658-6.294-2.819-10.394-6.479-12.298
		C147.301,133.887,145.692,133.483,143.935,133.483z"/>
	<g>
		<path fill="none" d="M211.022,138.644c-7.613-3.365-14.313-5.122-20.093-5.27c-5.052,0-8.858,1.171-11.419,3.514
			c-1.757,1.611-2.839,3.605-3.24,5.983c-0.403,2.38-0.093,4.925,0.933,7.631c1.025,2.564,2.544,4.979,4.558,7.248
			c2.012,2.27,4.482,4.281,7.411,6.038c6.001,3.661,13.321,5.893,21.96,6.698c0-5.122-0.019-10.229-0.055-15.317
			C211.039,150.082,211.022,144.573,211.022,138.644z"/>
		<path fill="none" d="M146.872,140.394l-0.119-0.064c-0.587-0.323-1.213-0.473-1.969-0.473c-1.783,0-3.561,0.549-5.432,1.677
			c-0.885,0.618-1.789,1.359-2.689,2.204c-0.777,0.728-1.489,1.62-2.123,2.659c-0.529,0.866-0.968,1.823-1.308,2.854l15.999-5.697
			C148.716,142.151,147.965,140.962,146.872,140.394z"/>
		<path fill="none" d="M275,157.201c-4-0.806-6.35-1.3-9.096-1.483c-2.746-0.182-5.182-0.126-7.269,0.165
			c-2.085,0.293-3.851,0.806-5.277,1.537c-1.428,0.732-2.515,1.574-3.246,2.525c-1.172,1.611-1.208,3.258-0.11,4.94
			c0.658,1.026,1.698,1.941,3.128,2.745c1.427,0.807,3.199,1.446,5.324,1.922c2.122,0.477,4.541,0.714,7.286,0.714
			c2.744,0,5.26-0.292,9.26-0.879v-7.576c0-0.804,0-1.591,0-2.36C275,158.684,275,157.933,275,157.201z"/>
		<path fill="#656B6E" d="M53,113v1.717c2-0.334,4.865-0.695,7.476-1.055c-0.072-1.154-0.476-2.34-0.476-3.594V13H16v98.742
			c0,18.243,4.827,33.1,14.387,44.571C34.188,160.888,38,164.797,44,168.074V113H53z"/>
		<path fill="#656B6E" d="M111.943,154.504c-0.089-3.159,0.246-6.3,0.994-9.332c0.751-3.053,1.942-5.999,3.54-8.751
			c2.968-5.065,6.941-9.175,11.823-12.237c2.06-1.339,4.262-2.424,6.548-3.23c1.786-0.632,3.61-1.096,5.44-1.398
			c0.06-1.197,0.098-2.406,0.098-3.63c0-17.046-5.996-31.625-17.984-43.735C110.41,60.082,95.884,54.026,79.077,54.026
			c-2.709,0-6.077,0.24-12.077,0.717v49.232c4-2.868,8.093-4.302,11.359-4.302c4.619,0,8.587,1.654,11.775,4.958
			c2.311,2.399,3.804,5.213,4.438,8.429c3.502-0.395,6.092-0.596,8.099-0.596c5.003,0,7.329,2.479,7.329,7.438v49.239
			c1-0.832,2.918-1.722,4.24-2.671c-1.402-3.577-2.146-7.539-2.388-11.798L111.943,154.504z"/>
		<path fill="#656B6E" d="M62.223,121.29C63.989,127.808,67,131.781,73,133.218v-12.224L62.223,121.29z"/>
		<path fill="#656B6E" d="M94.172,121.184L81,121.539v11.885c4-0.676,6.09-2.177,8.505-4.534
			C91.804,126.646,93.435,124.071,94.172,121.184z"/>
		<path fill="#ED1C24" d="M102.901,112.465c-2.007,0-4.901,0.201-7.901,0.596c0,0.002,0,0.003,0,0.005
			c-2,0.104-2.124,0.222-3.164,0.354c-3.776,0.546-7.68,1.069-11.5,1.569c-1.32-1.682-3.421-2.524-6.194-2.524
			c-2.821,0-6.418,0.273-10.739,0.819c-0.663,0.094-1.332,0.18-1.998,0.267l0,0c-0.002,0.001-0.292,0.001-0.294,0.002
			c-0.274,0.036-0.11,0.072-1.11,0.109c0,0.003,0,0.004,0,0.006c0-0.002,0.455,0,0.409-0.006c-2.61,0.359-5.409,0.721-7.409,1.055
			V113h-9v55.074V180h9v-1.472v-5.726v-51.264L61.6,122c0.101,0,0.4,0,0.4,0v-0.531v-0.09c0-0.004,0.535-0.056,1.028-0.072
			L73,120.994v12.224v44.523c0,0.016,0.298,0.035,0.457,0.053c-0.216-0.019-0.457-0.036-0.457-0.053v0.787V180h8v-1.472v-0.726
			c0,0.005-0.065,0.01-0.132,0.014c0.037-0.004,0.132-0.009,0.132-0.014v-44.379v-11.885l13-0.355c0-0.001,0-0.003,0-0.004l7-0.186
			v52.621v4.913V180h9v-10.858v-49.239C110,114.944,107.904,112.465,102.901,112.465z"/>
		<path d="M220.026,100.763c0.071-1.244-0.313-1.972-1.153-2.815c-0.843-0.841-1.886-0.948-3.13-0.948h-0.109
			c-1.245,0-2.27,0.089-3.074,0.895c-0.807,0.806-1.245,1.672-1.318,2.916l-0.219,28.36c-3.661-1.464-7.138-2.601-10.432-3.333
			c-3.295-0.731-6.478-1.153-9.552-1.227c-3.661-0.072-6.956,0.393-9.883,1.417c-2.928,1.026-5.454,2.483-7.576,4.386
			c-2.125,1.932-3.696,4.137-4.737,6.609c1.38,3.896,2.117,8.257,2.195,13.021c0.105,1.924-0.338,3.771-1.278,5.413
			c1.278,2.803,3.005,5.434,5.193,7.892c2.672,3.003,5.875,5.674,9.607,8.016c4.244,2.49,8.662,4.393,13.494,5.71
			c4.244,1.172,8.945,1.902,12.945,2.196v3.843c0,1.243,0.633,2.533,1.439,3.376c0.803,0.841,1.949,1.511,3.194,1.511h0.109
			c1.244-1,2.274-0.777,3.118-1.62c0.84-0.842,1.139-2.133,1.139-3.376v-8.676c0-5.122-0.117-10.211-0.152-15.262
			c-0.037-5.05-0.049-10.447-0.049-16.195c0-5.746,0.021-12.022,0.059-18.831C219.894,117.233,219.952,109.475,220.026,100.763z
			 M189.172,163.788c-2.929-1.757-5.399-3.769-7.411-6.038c-2.014-2.269-3.532-4.684-4.558-7.248
			c-1.025-2.706-1.336-5.251-0.933-7.631c0.401-2.378,1.483-4.372,3.24-5.983c2.561-2.343,6.367-3.514,11.419-3.514
			c5.78,0.147,12.479,1.904,20.093,5.27c0,5.93,0.017,11.438,0.055,16.525c0.036,5.088,0.055,10.195,0.055,15.317
			C202.493,169.681,195.173,167.449,189.172,163.788z"/>
		<path d="M235.671,145.671c-0.037-3.365-0.093-6.569-0.164-9.607c-0.074-3.036-0.146-5.617-0.22-7.74
			c-0.074-1.244-0.532-2.287-1.373-3.13c-0.842-0.84-1.886-1.225-3.129-1.153c-1.246,0.074-2.29,0.55-3.131,1.428
			c-0.842,0.879-1.226,1.941-1.151,3.185c0.072,2.124,0.146,4.722,0.22,7.796c0.072,3.074,0.127,6.296,0.165,9.662
			c0.035,3.368,0.046,6.735,0.083,10.103s0.029,6.405,0.029,9.112c0,2.71,0,4.904,0,6.588c0,1.687,0,2.563,0,2.636
			c0,1.245,0.447,2.288,1.289,3.129c0.842,0.843,1.897,1.263,3.143,1.263c1.244,0,2.374-0.42,3.217-1.263
			c0.841-0.841,1.352-1.884,1.352-3.129c0-0.221,0-1.226,0-3.021c0-1.792,0-4.043,0-6.752c0-2.707-0.102-5.727-0.137-9.059
			C235.826,152.388,235.707,149.039,235.671,145.671z"/>
		<path d="M229.908,110.975c1.315,0,2.414-0.42,3.292-1.263c0.879-0.841,1.317-1.884,1.317-3.129c0-1.243-0.438-2.287-1.317-3.13
			c-0.878-0.841-1.977-1.263-3.292-1.263c-1.247,0-2.326,0.422-3.241,1.263c-0.916,0.843-1.371,1.887-1.371,3.13
			c0,1.245,0.455,2.288,1.371,3.129C227.582,110.555,228.661,110.975,229.908,110.975z"/>
		<path d="M283.078,153.024c-0.146-2.676-0.125-5.114-0.345-7.315c-0.366-3.006-0.664-5.516-1.104-7.533
			c-0.439-2.017-0.976-3.686-1.707-5.007c-1.465-2.785-3.321-4.947-5.627-6.488c-2.308-1.54-4.947-2.421-7.949-2.641
			c-3.661-0.364-7.241,0.414-10.755,2.336c-1.685,0.816-3.273,1.871-4.771,3.168c-1.502,1.298-2.873,2.758-4.117,4.379
			c-0.732,0.952-1.004,2.014-0.821,3.184c0.183,1.172,0.75,2.161,1.701,2.964c1.024,0.734,2.123,1.009,3.295,0.824
			c1.17-0.183,2.122-0.749,2.854-1.701c1.61-2.122,3.478-3.753,5.601-4.889c2.121-1.136,4.243-1.628,6.368-1.479
			c2.854,0.219,5.012,1.72,6.479,4.501c0.291,0.513,0.64,1.538,1.043,3.074c0.401,1.538,0.785,4.063,1.151,7.577
			c-6.587-1.317-12.444-1.537-17.567-0.659c-3.952,0.659-6.971,1.721-9.058,3.184c-2.088,1.466-3.643,2.894-4.668,4.282
			c-1.684,2.271-2.563,4.722-2.635,7.356c-0.072,2.636,0.659,5.125,2.196,7.467c1.318,2.051,3.129,3.788,5.436,5.216
			c2.306,1.428,4.996,2.508,8.07,3.239c2.854,0.659,5.965,0.988,9.332,0.988c1.465,0,2.964-0.055,4.502-0.165
			c1.536-0.109,3.296-0.311,4.981-0.604c-0.074,0.513,0.037,0.934,0.037,1.262c0,0.329,0,0.641,0,0.934v0.769
			c0,1.244,0.145,2.378,0.951,3.255c0.805,0.88,1.68,1.499,2.924,1.499h0.22c1.17,0,2.178-0.476,3.021-1.28
			c0.839-0.809,1.298-1.834,1.37-3.006c0-0.073,0.019-0.696,0.056-1.833c0.036-1.135-0.315-2.629-0.243-4.464
			c0.072-1.832-0.299-3.931-0.299-6.277c0-2.348,0-4.84,0-7.48C283,158.579,283.227,155.701,283.078,153.024z M275,169.388
			c-4,0.587-6.516,0.879-9.26,0.879c-2.746,0-5.172-0.237-7.295-0.714c-2.124-0.476-3.894-1.115-5.321-1.922
			c-1.428-0.804-2.47-1.719-3.128-2.745c-1.098-1.683-1.06-3.329,0.112-4.94c0.73-0.951,1.812-1.793,3.238-2.525
			c1.428-0.731,3.185-1.244,5.271-1.537c2.086-0.291,4.541-0.347,7.286-0.165c2.746,0.184,5.097,0.678,9.097,1.483
			c0,0.731,0,1.482,0,2.25c0,0.77,0,1.557,0,2.36V169.388z"/>
	</g>
</g>
</svg>
